# xmcd
#
# Track frame offsets:
#	150
#	17041
#	37417
#	53350
#	58863
#	83110
#	103143
#	133152
#	147337
#
# Disc length: 2120 seconds
#
# Revision: 16
# Processed by: cddbd v1.5.2PL0 Copyright (c) Steve Scherf et al.
# Submitted via: Jack! The Knife 20 Magnifico
#
DISCID=80084609
DTITLE=Black Sabbath - Seventh Star
DYEAR=1986
DGENRE=Metal
TTITLE0=In For The Kill
TTITLE1=No Stranger To Love
TTITLE2=Turn To Stone
TTITLE3=Sphinx (The Guardian)
TTITLE4=Seventh Star
TTITLE5=Danger Zone
TTITLE6=Heart Like A Wheel
TTITLE7=Angry Heart
TTITLE8=In Memory...
EXTD=Jeff Glixman
EXTT0=Tony Iommi
EXTT1=Tony Iommi
EXTT2=Tony Iommi
EXTT3=Tony Iommi
EXTT4=Tony Iommi
EXTT5=Tony Iommi
EXTT6=Tony Iommi
EXTT7=Tony Iommi
EXTT8=Tony Iommi
PLAYORDER=
